Coordinates
version=1
nRows=14
nColumns=40
inDegrees=yes

Units are S.I. units (second, meters, Newtons, ...)
If the header above contains a line with 'inDegrees', this indicates whether rotational values are in degrees (yes) or radians (no).

endheader
time	pelvis_tilt	pelvis_list	pelvis_rotation	pelvis_tx	pelvis_ty	pelvis_tz	hip_flexion_r	hip_adduction_r	hip_rotation_r	knee_angle_r	knee_angle_r_beta	ankle_angle_r	subtalar_angle_r	mtp_angle_r	hip_flexion_l	hip_adduction_l	hip_rotation_l	knee_angle_l	knee_angle_l_beta	ankle_angle_l	subtalar_angle_l	mtp_angle_l	lumbar_extension	lumbar_bending	lumbar_rotation	arm_flex_r	arm_add_r	arm_rot_r	elbow_flex_r	pro_sup_r	wrist_flex_r	wrist_dev_r	arm_flex_l	arm_add_l	arm_rot_l	elbow_flex_l	pro_sup_l	wrist_flex_l	wrist_dev_l
      1.06800000	     20.31465243	      1.13243965	      0.29492387	      1.41516830	      0.98311733	     -0.31197844	      0.02479506	     -4.74632125	     -6.34379938	     38.38090807	      0.66987322	     -5.74388005	      0.00000000	      0.00000000	    -26.91485498	      4.64901457	      5.44284193	      8.28967881	      0.14468219	     -6.88662526	      0.00000000	      0.00000000	    -33.44095242	     -0.87249783	     -6.17030943	     -4.27582888	    -17.11511464	      3.29135726	     43.67028011	     76.75282476	      0.00000000	      0.00000000	      6.28388951	    -25.72789081	     23.10274871	     57.76617797	     77.64899274	      0.00000000	      0.00000000
      1.07200000	     20.14067479	      1.27890980	      0.32611648	      1.41993313	      0.98239533	     -0.31202562	      0.60289912	     -4.86326923	     -6.36209898	     37.43955304	      0.65344347	     -5.77687628	      0.00000000	      0.00000000	    -27.15079574	      4.77666064	      5.41379123	      8.10114241	      0.14139161	     -6.86052741	      0.00000000	      0.00000000	    -33.33550414	     -0.97728819	     -6.31259791	     -4.29450861	    -17.08754491	      3.23195570	     43.63704334	     76.73654461	      0.00000000	      0.00000000	      6.44087403	    -25.80064389	     23.16303279	     58.08853116	     77.57503278	      0.00000000	      0.00000000
      1.07600000	     20.18758043	      1.34154757	      0.54609092	      1.42473416	      0.98210329	     -0.31202130	      0.78222957	     -4.85727705	     -6.57670029	     36.22200359	      0.63219322	     -6.20701930	      0.00000000	      0.00000000	    -27.74648286	      4.69417253	      5.82727842	      7.67339014	      0.13392592	     -7.28549281	      0.00000000	      0.00000000	    -33.44655268	     -0.93142589	     -6.57016631	     -4.29657053	    -16.98539981	      3.09301928	     43.53797994	     76.68639181	      0.00000000	      0.00000000	      6.66355614	    -25.93311505	     23.22493776	     58.31809658	     77.36204257	      0.00000000	      0.00000000
      1.08000000	     19.99625253	      1.52229991	      0.50443364	      1.42948146	      0.98120439	     -0.31210244	      1.42306943	     -5.06766781	     -6.66883806	     35.37913405	      0.61748238	     -6.20134950	      0.00000000	      0.00000000	    -27.92093873	      4.89913719	      5.68619157	      7.57894106	      0.13227748	     -7.20996890	      0.00000000	      0.00000000	    -33.31673517	     -1.09361196	     -6.68428116	     -4.35100422	    -16.98481130	      3.06898624	     43.61518180	     76.67406380	      0.00000000	      0.00000000	      6.79256234	    -25.97845069	     23.25908308	     58.60885218	     77.35424675	      0.00000000	      0.00000000
      1.08400000	     19.76501837	      1.70498575	      0.52967620	      1.43437079	      0.98029918	     -0.31197925	      2.02875351	     -5.22013272	     -6.68319271	     34.40158772	      0.60042097	     -6.40041371	      0.00000000	      0.00000000	    -28.08160412	      5.06198615	      5.64976925	      7.46356732	      0.13026382	     -7.10331852	      0.00000000	      0.00000000	    -33.12868369	     -1.25387052	     -6.82829992	     -4.38670847	    -16.93201231	      2.99312518	     43.56691027	     76.64804650	      0.00000000	      0.00000000	      6.92248156	    -26.05705105	     23.27468828	     58.88498265	     77.34424542	      0.00000000	      0.00000000
      1.08800000	     19.59471989	      1.86504317	      0.58043921	      1.43893798	      0.97945467	     -0.31189167	      2.56494465	     -5.33967437	     -6.73361956	     33.35121783	      0.58208856	     -6.72852865	      0.00000000	      0.00000000	    -28.25268713	      5.19335224	      5.60966820	      7.38754849	      0.12893704	     -7.03058345	      0.00000000	      0.00000000	    -33.04338057	     -1.37178027	     -7.00690154	     -4.39317528	    -16.84757595	      2.89488474	     43.59145867	     76.61916294	      0.00000000	      0.00000000	      7.06687897	    -26.14339745	     23.28504618	     59.19087348	     77.30693660	      0.00000000	      0.00000000
      1.09200000	     19.46730161	      2.01304481	      0.77797853	      1.44316038	      0.97872704	     -0.31180695	      2.98766945	     -5.41718012	     -6.84756403	     32.18294264	      0.56169831	     -7.24373957	      0.00000000	      0.00000000	    -28.40141010	      5.22759634	      5.76283879	      7.39908165	      0.12913834	     -6.94150110	      0.00000000	      0.00000000	    -33.06314510	     -1.42842414	     -7.27392895	     -4.30258388	    -16.73561991	      2.78466542	     43.50136582	     76.58947681	      0.00000000	      0.00000000	      7.27543890	    -26.33865954	     23.38296007	     59.57268805	     77.26943320	      0.00000000	      0.00000000
      1.09600000	     19.43816282	      2.04728087	      1.03177066	      1.44780192	      0.97818535	     -0.31188798	      3.18919119	     -5.40072835	     -7.22248939	     30.85782400	      0.53857063	     -7.87677352	      0.00000000	      0.00000000	    -28.65634737	      5.11684496	      5.84320557	      7.47218657	      0.13041426	     -6.82055837	      0.00000000	      0.00000000	    -33.12986663	     -1.32964704	     -7.57606527	     -4.13284386	    -16.65312667	      2.85870658	     43.20965027	     76.55041746	      0.00000000	      0.00000000	      7.44301657	    -26.41925046	     23.37241751	     59.81410268	     77.10328995	      0.00000000	      0.00000000
      1.10000000	     19.20723236	      2.22580123	      0.99222904	      1.45270187	      0.97702557	     -0.31164467	      3.82399984	     -5.56840807	     -7.33329635	     29.97951848	      0.52324131	     -7.93988399	      0.00000000	      0.00000000	    -28.77612122	      5.30299160	      5.66801817	      7.41948110	      0.12949437	     -6.66874889	      0.00000000	      0.00000000	    -32.93827138	     -1.51617984	     -7.66983903	     -4.20421386	    -16.62908142	      2.85553743	     43.26457545	     76.53872967	      0.00000000	      0.00000000	      7.53588698	    -26.50970116	     23.40350646	     60.10934097	     77.08933820	      0.00000000	      0.00000000
      1.10400000	     19.02134733	      2.28200946	      0.98088843	      1.45715612	      0.97611598	     -0.31129345	      4.27705475	     -5.50972566	     -7.22255224	     28.69008974	      0.50073653	     -8.65090997	      0.00000000	      0.00000000	    -28.86983101	      5.34277652	      5.59066606	      7.45416937	      0.13009980	     -6.52689377	      0.00000000	      0.00000000	    -32.87203813	     -1.58235415	     -7.74992793	     -4.07853561	    -16.52511017	      2.74110199	     43.08987914	     76.53572128	      0.00000000	      0.00000000	      7.72983121	    -26.54648575	     23.34927159	     60.30815668	     77.01834940	      0.00000000	      0.00000000
      1.10800000	     18.77048936	      2.40661511	      0.93154068	      1.46206901	      0.97491568	     -0.31093748	      4.89481403	     -5.59411668	     -7.33038568	     27.73832828	      0.48412516	     -8.71719410	      0.00000000	      0.00000000	    -28.95369561	      5.47743842	      5.39494918	      7.43857596	      0.12982764	     -6.34980016	      0.00000000	      0.00000000	    -32.66529539	     -1.73703897	     -7.79046592	     -4.09106870	    -16.49417376	      2.78450551	     43.04222365	     76.51327001	      0.00000000	      0.00000000	      7.84794736	    -26.63486497	     23.39045503	     60.55856624	     77.01344828	      0.00000000	      0.00000000
      1.11200000	     18.53879072	      2.54965035	      0.84640613	      1.46693792	      0.97365649	     -0.31074102	      5.48035348	     -5.70362369	     -7.42723561	     26.74334052	      0.46675935	     -8.85634493	      0.00000000	      0.00000000	    -29.03407219	      5.65638268	      5.25666042	      7.47024882	      0.13038044	     -6.17274935	      0.00000000	      0.00000000	    -32.48508727	     -1.90276221	     -7.83459534	     -4.09170949	    -16.51035980	      2.77914811	     42.92601163	     76.53764991	      0.00000000	      0.00000000	      7.97497689	    -26.66714276	     23.41521575	     60.77727547	     77.01091001	      0.00000000	      0.00000000
      1.11600000	     18.42880862	      2.40684488	      0.88667388	      1.47118322	      0.97286544	     -0.31016598	      5.74205526	     -5.35417608	     -7.25464442	     25.24543951	      0.44061604	     -9.63110562	      0.00000000	      0.00000000	    -29.10593963	      5.46452662	      5.11894838	      7.69611298	      0.13432251	     -5.96149177	      0.00000000	      0.00000000	    -32.50790496	     -1.77653777	     -7.85170218	     -3.77557156	    -16.39967290	      2.79688732	     42.50753801	     76.65466551	      0.00000000	      0.00000000	      8.22654858	    -26.69654549	     23.38728861	     60.90859312	     76.98619820	      0.00000000	      0.00000000
      1.12000000	     18.15884372	      2.58312297	      0.81169712	      1.47636500	      0.97143443	     -0.31000696	      6.40128559	     -5.53168599	     -7.49795569	     24.45896481	      0.42688947	     -9.55551697	      0.00000000	      0.00000000	    -29.15566898	      5.67160690	      4.83701388	      7.72927542	      0.13490130	     -5.78754439	      0.00000000	      0.00000000	    -32.25540172	     -1.96519509	     -7.90369560	     -3.84298435	    -16.40005336	      2.82402262	     42.51302279	     76.67261894	      0.00000000	      0.00000000	      8.28405460	    -26.75669661	     23.42229590	     61.14268037	     76.99534871	      0.00000000	      0.00000000
